<svg xmlns="http://www.w3.org/2000/svg" xmlns:xlink="http://www.w3.org/1999/xlink" width="551" height="160" viewBox="0 0 551 160">
    <defs>
        <path id="a" d="M0 0h170.154v170H0z"/>
    </defs>
    <g fill="none" fill-rule="evenodd">
        <g transform="translate(-2 -5)">
            <mask id="b" fill="#fff">
                <use xlink:href="#a"/>
            </mask>
            <g fill-rule="nonzero" mask="url(#b)">
                <path fill="#D24D57" d="M99.54 125.775l15.64 27.025 7.556-4.675 2.652-8.95-16.79-29.05zM48.92 18.75l-7.382 6.4 19.817 34.225L70.39 43.75 52.297 12.475zM65.935 102.4l-22.02 38.075 2.752 10.125 6.756 4.775 31.754-54.925 9.058-15.675 35.132-60.85-5.83-8.1L121.56 13l-8.558 7.925z"/>
                <path fill="#446CB3" d="M48.219 5.375l-9.059 15.7h.025L11.41 69.225l-.025-.025-9.033 15.675 45.867 79.5 9.058-15.65L20.443 84.9l36.834-63.825h26.349l9.058-15.7zM112.902 21.1l36.808 63.8-36.808 63.8H86.553l-9.033 15.675h44.44l9.058-15.675 27.75-48.125 9.059-15.65-9.033-15.775-27.8-48.075-9.009-15.7z"/>
            </g>
        </g>
        <g fill="#446CB3">
            <path d="M243.603 51.392l-16.78 24.451-16.842-24.451H196.58l23.396 32.823-24.598 34.381h13.345l18.096-25.898 17.923 25.898h13.345l-24.596-34.38 23.396-32.824zM294.42 60.204c4.896 0 8.702 1.578 11.31 4.687 2.52 3.004 3.86 7.368 3.98 12.978H277.24c.634-5.404 2.389-9.707 5.217-12.803 2.948-3.225 6.972-4.862 11.963-4.862m.12-10.008c-8.997 0-16.27 3.24-21.619 9.627-5.312 6.346-8.006 14.994-8.006 25.708 0 10.655 2.907 19.118 8.64 25.148 5.742 6.047 13.67 9.112 23.557 9.112 4.465 0 8.336-.338 11.51-1.005 3.172-.666 6.577-1.78 10.123-3.308l.514-.221v-10.693l-1.186.507c-6.762 2.89-13.692 4.353-20.602 4.353-6.422 0-11.455-1.919-14.958-5.703-3.388-3.66-5.263-9.068-5.576-16.084h45.133v-7.126c0-9.017-2.488-16.395-7.391-21.929-4.933-5.565-11.709-8.386-20.14-8.386M369.134 50.197c-4.615 0-8.865.923-12.634 2.744-3.335 1.613-6.05 3.835-8.094 6.623l-1.472-8.172h-9.638v67.203h11.632V83.38c0-8.28 1.542-14.267 4.579-17.794 3.007-3.492 7.863-5.263 14.43-5.263 4.915 0 8.548 1.236 10.802 3.67 2.27 2.458 3.422 6.285 3.422 11.378v43.223h11.632V75.013c0-8.568-2.102-14.919-6.245-18.873-4.133-3.944-10.328-5.943-18.414-5.943M438.106 109.783c-5.705 0-9.901-1.975-12.83-6.042-2.948-4.095-4.444-10.3-4.444-18.448 0-8.036 1.51-14.32 4.487-18.676 2.949-4.317 7.092-6.413 12.668-6.413 6.471 0 11.227 1.89 14.133 5.62 2.957 3.793 4.456 10.303 4.456 19.348v2.093c0 7.966-1.473 13.785-4.38 17.3-2.866 3.462-7.607 5.218-14.09 5.218zm18.472-58.332l.242 4.63.263 2.976c-4.849-5.882-11.648-8.86-20.233-8.86-8.766 0-15.712 3.122-20.644 9.283-4.887 6.103-7.365 14.748-7.365 25.692 0 10.948 2.47 19.535 7.34 25.519 4.911 6.038 11.866 9.1 20.67 9.1 8.878 0 15.764-3.116 20.49-9.265l1.21 8.07h9.657V23.899h-11.632l.002 27.552zM493.44 27.067c-1.893 0-3.499.61-4.773 1.816-1.289 1.219-1.94 3.106-1.94 5.608 0 2.457.648 4.342 1.928 5.597 1.276 1.253 2.885 1.888 4.784 1.888 1.812 0 3.398-.632 4.714-1.876 1.327-1.258 1.999-3.145 1.999-5.609 0-2.466-.674-4.343-2.005-5.582-1.315-1.223-2.899-1.842-4.708-1.842M487.563 118.595h11.632V51.393h-11.632zM549.312 108.74c-.92.27-2.192.53-3.783.784-1.584.25-3.25.38-4.951.38-3.044 0-5.36-.944-7.08-2.884-1.724-1.94-2.599-4.807-2.599-8.519V60.802h19.024v-9.41h-19.024v-15.18h-7.226l-4.256 14.215-9.54 4.189v6.186h9.39V98.92c0 13.848 6.688 20.87 19.875 20.87 1.701 0 3.65-.175 5.788-.52 2.195-.353 3.827-.797 4.99-1.356l.48-.231v-9.26l-1.088.318z"/>
        </g>
    </g>
</svg>
